<svg width="346" height="249" viewBox="0 0 346 249" fill="none" xmlns="http://www.w3.org/2000/svg">
<path d="M125.177 221.004C137.469 223.155 149.971 224.414 162.538 224.768C191.712 225.626 221.005 221.636 247.232 213.232L250.131 212.311L251.773 214.462C263.514 229.85 285.604 242.299 305.561 249C291.521 235.268 283.527 213.924 287.512 196.518L287.788 195.357L288.968 194.636C322.82 174.403 342.978 146.963 345.699 117.361C348.032 91.7858 336.74 66.3589 313.882 45.7592C291.177 25.3324 258.12 10.4565 220.81 3.88464C208.517 1.73873 196.015 0.477114 183.448 0.11446C88.1592 -2.66509 5.99942 45.5198 0.302124 107.526C-2.0358 133.097 9.25479 158.523 32.1105 179.11C54.8161 199.555 87.8727 214.428 125.179 221.004H125.177Z" fill="#070D24"/>
</svg>
