<svg width="340" height="160" viewBox="0 0 340 160" fill="none" xmlns="http://www.w3.org/2000/svg">
<path d="M300.752 29.3651C273.624 16.4207 234.174 7.06457 189.641 3.02352C156.969 0.100224 123.255 -0.023254 90.3868 2.65999C99.2001 12.2931 104.614 22.4577 106.447 32.812C111.396 61.1807 88.2779 89.3856 41.3392 112.232C28.8946 118.26 15.2123 123.784 0.464048 128.733C22.5303 134.974 48.326 139.563 76.0953 142.079C90.7595 143.4 105.674 144.151 120.663 144.323C155.458 144.744 190.383 142.068 221.642 136.588L225.101 135.987L227.068 137.354C241.108 147.129 267.481 154.983 291.297 159.174C274.521 150.467 264.936 136.871 269.649 125.74L269.965 124.998L271.37 124.532C311.696 111.466 335.676 93.8551 338.851 74.9412C341.586 58.6079 328.062 42.4211 300.752 29.3651Z" fill="#070D24"/>
</svg>
