<svg width="281" height="250" viewBox="0 0 281 250" fill="none" xmlns="http://www.w3.org/2000/svg">
<path d="M179.339 221.891C169.356 224.051 159.202 225.316 148.997 225.671C125.304 226.532 101.513 222.526 80.2135 214.089L77.8591 213.164L76.5254 215.324C66.9903 230.773 49.0501 243.273 32.8425 250C44.2445 236.213 50.7369 214.783 47.5004 197.307L47.276 196.142L46.3177 195.418C18.8257 175.103 2.45467 147.553 0.244342 117.832C-1.65022 92.1544 7.52069 66.6254 26.0841 45.943C44.5242 25.4342 71.3708 10.4985 101.671 3.90024C111.655 1.74571 121.809 0.479031 132.015 0.11492C209.402 -2.6758 276.128 45.7026 280.755 107.958C282.653 133.632 273.484 159.159 254.922 179.829C236.482 200.356 209.635 215.289 179.337 221.891H179.339Z" fill="#070D24"/>
</svg>
